HIERARCHY
ROOT hip
{
  OFFSET 0 0 0
  CHANNELS 6 Xposition Yposition Zposition Zrotation Yrotation Xrotation
  JOINT abdomen
  {
    OFFSET 0 20.6881 -0.73152
    CHANNELS 3 Zrotation Xrotation Yrotation
    JOINT chest
    {
      OFFSET 0 11.7043 -0.48768
      CHANNELS 3 Zrotation Xrotation Yrotation
      JOINT neck
      {
        OFFSET 0 22.1894 -2.19456
        CHANNELS 3 Zrotation Xrotation Yrotation
        JOINT head
        {
          OFFSET -0.24384 7.07133 1.2192
          CHANNELS 3 Zrotation Xrotation Yrotation
          JOINT leftEye
          {
            OFFSET 4.14528 8.04674 8.04672
            CHANNELS 3 Zrotation Xrotation Yrotation
            End Site
            {
              OFFSET 1 0 0
            }
          }
          JOINT rightEye
          {
            OFFSET -3.6576 8.04674 8.04672
            CHANNELS 3 Zrotation Xrotation Yrotation
            End Site
            {
              OFFSET 1 0 0
            }
          }
        }
      }
      JOINT rCollar
      {
        OFFSET -2.68224 19.2634 -4.8768
        CHANNELS 3 Zrotation Xrotation Yrotation
        JOINT rShldr
        {
          OFFSET -8.77824 -1.95073 1.46304
          CHANNELS 3 Zrotation Xrotation Yrotation
          JOINT rForeArm
          {
            OFFSET -28.1742 -1.7115 0.48768
            CHANNELS 3 Zrotation Xrotation Yrotation
            JOINT rHand
            {
              OFFSET -22.5879 0.773209 7.07136
              CHANNELS 3 Zrotation Xrotation Yrotation
              JOINT rThumb1
              {
                OFFSET -1.2192 -0.487915 3.41376
                CHANNELS 3 Zrotation Xrotation Yrotation
                JOINT rThumb2
                {
                  OFFSET -3.37035 -0.52449 3.41376
                  CHANNELS 3 Zrotation Xrotation Yrotation
                  End Site
                  {
                    OFFSET -1.78271 -1.18214 1.43049
                  }
                }
              }
              JOINT rIndex1
              {
                OFFSET -7.75947 0.938293 5.60832
                CHANNELS 3 Zrotation Xrotation Yrotation
                JOINT rIndex2
                {
                  OFFSET -2.54057 -0.884171 1.56538
                  CHANNELS 3 Zrotation Xrotation Yrotation
                  End Site
                  {
                    OFFSET -1.62519 -0.234802 1.16502
                  }
                }
              }
              JOINT rMid1
              {
                OFFSET -8.24714 1.18213 3.41376
                CHANNELS 3 Zrotation Xrotation Yrotation
                JOINT rMid2
                {
                  OFFSET -3.10165 -0.590103 1.0647
                  CHANNELS 3 Zrotation Xrotation Yrotation
                  End Site
                  {
                    OFFSET -2.48547 -0.328903 0.83742
                  }
                }
              }
              JOINT rRing1
              {
                OFFSET -8.82822 0.546677 1.51678
                CHANNELS 3 Zrotation Xrotation Yrotation
                JOINT rRing2
                {
                  OFFSET -2.60934 -0.819778 -0.0198488
                  CHANNELS 3 Zrotation Xrotation Yrotation
                  End Site
                  {
                    OFFSET -2.33842 -0.294052 0.168128
                  }
                }
              }
              JOINT rPinky1
              {
                OFFSET -8.27202 -0.0477905 -0.4584
                CHANNELS 3 Zrotation Xrotation Yrotation
                JOINT rPinky2
                {
                  OFFSET -1.82734 -0.647385 -0.700984
                  CHANNELS 3 Zrotation Xrotation Yrotation
                  End Site
                  {
                    OFFSET -1.69225 -0.51767 -0.607171
                  }
                }
              }
            }
          }
        }
      }
      JOINT lCollar
      {
        OFFSET 2.68224 19.2634 -4.8768
        CHANNELS 3 Zrotation Xrotation Yrotation
        JOINT lShldr
        {
          OFFSET 8.77824 -1.95073 1.46304
          CHANNELS 3 Zrotation Xrotation Yrotation
          JOINT lForeArm
          {
            OFFSET 28.1742 -1.7115 0.48768
            CHANNELS 3 Zrotation Xrotation Yrotation
            JOINT lHand
            {
              OFFSET 22.5879 0.773209 7.07136
              CHANNELS 3 Zrotation Xrotation Yrotation
              JOINT lThumb1
              {
                OFFSET 1.2192 -0.487915 3.41376
                CHANNELS 3 Zrotation Xrotation Yrotation
                JOINT lThumb2
                {
                  OFFSET 3.37035 -0.52449 3.41376
                  CHANNELS 3 Zrotation Xrotation Yrotation
                  End Site
                  {
                    OFFSET 1.78271 -1.18214 1.43049
                  }
                }
              }
              JOINT lIndex1
              {
                OFFSET 7.75947 0.938293 5.60832
                CHANNELS 3 Zrotation Xrotation Yrotation
                JOINT lIndex2
                {
                  OFFSET 2.54057 -0.884171 1.56538
                  CHANNELS 3 Zrotation Xrotation Yrotation
                  End Site
                  {
                    OFFSET 1.62519 -0.234802 1.16502
                  }
                }
              }
              JOINT lMid1
              {
                OFFSET 8.24714 1.18213 3.41376
                CHANNELS 3 Zrotation Xrotation Yrotation
                JOINT lMid2
                {
                  OFFSET 3.10165 -0.590103 1.0647
                  CHANNELS 3 Zrotation Xrotation Yrotation
                  End Site
                  {
                    OFFSET 2.48547 -0.328903 0.83742
                  }
                }
              }
              JOINT lRing1
              {
                OFFSET 8.82822 0.546677 1.51678
                CHANNELS 3 Zrotation Xrotation Yrotation
                JOINT lRing2
                {
                  OFFSET 2.60934 -0.819778 -0.0198488
                  CHANNELS 3 Zrotation Xrotation Yrotation
                  End Site
                  {
                    OFFSET 2.33842 -0.294052 0.168128
                  }
                }
              }
              JOINT lPinky1
              {
                OFFSET 8.27202 -0.0477905 -0.4584
                CHANNELS 3 Zrotation Xrotation Yrotation
                JOINT lPinky2
                {
                  OFFSET 1.82734 -0.647385 -0.700984
                  CHANNELS 3 Zrotation Xrotation Yrotation
                  End Site
                  {
                    OFFSET 1.69225 -0.51767 -0.607171
                  }
                }
              }
            }
          }
        }
      }
    }
  }
  JOINT rButtock
  {
    OFFSET -8.77824 4.35084 1.2192
    CHANNELS 3 Zrotation Xrotation Yrotation
    JOINT rThigh
    {
      OFFSET 0 -1.70687 -2.19456
      CHANNELS 3 Zrotation Xrotation Yrotation
      JOINT rShin
      {
        OFFSET 0 -36.8199 0.73152
        CHANNELS 3 Zrotation Xrotation Yrotation
        JOINT rFoot
        {
          OFFSET 0.73152 -45.1104 -5.12064
          CHANNELS 3 Zrotation Xrotation Yrotation
          End Site
          {
            OFFSET -1.1221 -3.69964 12.103
          }
        }
      }
    }
  }
  JOINT lButtock
  {
    OFFSET 8.77824 4.35084 1.2192
    CHANNELS 3 Zrotation Xrotation Yrotation
    JOINT lThigh
    {
      OFFSET 0 -1.70687 -2.19456
      CHANNELS 3 Zrotation Xrotation Yrotation
      JOINT lShin
      {
        OFFSET 0 -36.8199 0.73152
        CHANNELS 3 Zrotation Xrotation Yrotation
        JOINT lFoot
        {
          OFFSET -0.73152 -45.1104 -5.12064
          CHANNELS 3 Zrotation Xrotation Yrotation
          End Site
          {
            OFFSET 1.1221 -3.69964 12.103
          }
        }
      }
    }
  }
}
MOTION
Frames:	6
Frame Time:	0.00833333
236.01 75.8402 -25.7565 179.177 29.2356 -170.203 -14.8162 51.7328 10.6046 -2.3685 -11.3468 2.37647 0.199078 -13.9174 4.49273 -9.22281 -7.13751 8.67413 -0.0 0.0 0.0 -0.0 0.0 0.0 -1.33509e-14 -1.37336e-13 -2.95689e-13 44.2626 30.086 40.2488 -25.0684 -21.2434 53.1926 -0.224272 -13.3644 -1.91344 3.12092e-09 -4.24374e-09 -2.31e-09 5.41908e-09 -7.39352e-09 -3.96453e-09 3.12093e-09 -4.24374e-09 -2.31002e-09 7.73091 5.47488 0.417314 3.12092e-09 -4.24375e-09 -2.31001e-09 2.90554 0.965183 0.102902 3.12093e-09 -4.24374e-09 -2.31e-09 10.2786 0.731801 0.0259123 3.12091e-09 -4.24374e-09 -2.31e-09 2.22167 -0.733487 -0.20892 -1.33551e-14 -1.37334e-13 -2.95941e-13 -29.6849 32.2794 -38.0679 23.8254 -18.774 -49.0647 1.28683 -30.4095 4.73159 5.52857e-10 2.97142e-09 2.33516e-09 8.92918e-10 5.11e-09 4.05227e-09 5.52856e-10 2.97143e-09 2.33518e-09 -7.73091 5.47488 -0.417314 5.52859e-10 2.97142e-09 2.33516e-09 -2.90554 0.965183 -0.102902 5.52849e-10 2.97142e-09 2.33515e-09 -10.2786 0.731801 -0.0259123 5.52859e-10 2.97142e-09 2.33514e-09 -2.22167 -0.733487 0.20892 -2.03217e-16 0.0 -3.88251e-19 -26.9463 -27.1635 -26.3825 -0.917257 59.8615 2.00111 -1.98236 -15.4441 -5.60279 2.03217e-16 0.0 3.88251e-19 1.49827 -54.5863 4.02557 0.567247 48.6873 -0.907188 1.1362 -2.21722 5.91819
236.61 76.0422 -25.6302 179.353 28.9531 -169.86 -14.2549 51.689 10.1179 -2.1856 -11.3231 2.32623 0.149552 -13.8945 4.5362 -9.35248 -7.20708 8.78495 -0.0 0.0 0.0 -0.0 0.0 0.0 1.74716e-14 -1.33583e-13 -3.16316e-13 44.4144 29.9513 39.8053 -25.0802 -21.2692 53.2349 -0.223446 -13.3426 -1.91018 2.95209e-09 -4.07105e-09 -2.18823e-09 5.12619e-09 -7.09124e-09 -3.75569e-09 2.9521e-09 -4.07105e-09 -2.18826e-09 7.73091 5.47488 0.417314 2.95209e-09 -4.07105e-09 -2.18824e-09 2.90554 0.965183 0.102902 2.9521e-09 -4.07105e-09 -2.18824e-09 10.2786 0.731801 0.0259123 2.95209e-09 -4.07105e-09 -2.18823e-09 2.22167 -0.733487 -0.20892 1.74659e-14 -1.33583e-13 -3.16565e-13 -29.2004 31.322 -38.5088 23.9613 -19.0251 -49.4873 1.3041 -30.5908 4.76593 3.96004e-10 3.11079e-09 2.57803e-09 6.16475e-10 5.34273e-09 4.46791e-09 3.96005e-10 3.1108e-09 2.57805e-09 -7.73091 5.47488 -0.417314 3.96006e-10 3.11079e-09 2.57803e-09 -2.90554 0.965183 -0.102902 3.95999e-10 3.11079e-09 2.57803e-09 -10.2786 0.731801 -0.0259123 3.96007e-10 3.11079e-09 2.57801e-09 -2.22167 -0.733487 0.20892 -2.03217e-16 0.0 -3.88251e-19 -26.6152 -28.1174 -24.6073 -0.790801 57.6177 1.86808 -2.20397 -16.1968 -6.03287 2.03217e-16 0.0 3.88251e-19 2.02975 -54.422 4.0152 0.549433 48.3021 -0.92198 1.08567 -2.20764 5.78873
237.188 76.1494 -25.4518 179.409 28.7124 -169.507 -13.7963 51.4512 9.57465 -1.94103 -11.2473 2.25354 0.151587 -13.9068 4.63536 -9.55032 -7.27572 8.97916 -0.0 0.0 0.0 -0.0 0.0 0.0 -2.02827e-14 -4.57659e-14 -1.23786e-13 44.3584 29.9554 39.4651 -25.0994 -21.3108 53.303 -0.225796 -13.4117 -1.92045 2.07798e-09 -2.98249e-09 -2.24877e-09 3.61661e-09 -5.20706e-09 -3.87009e-09 2.07799e-09 -2.98248e-09 -2.2488e-09 7.73091 5.47488 0.417314 2.07798e-09 -2.98249e-09 -2.24877e-09 2.90554 0.965183 0.102902 2.07798e-09 -2.98249e-09 -2.24877e-09 10.2786 0.731801 0.0259123 2.07797e-09 -2.98249e-09 -2.24877e-09 2.22167 -0.733487 -0.20892 -2.03025e-14 -4.57746e-14 -1.24038e-13 -29.0332 30.4062 -38.749 24.0794 -19.2452 -49.8684 1.32867 -30.8432 4.81408 -1.4353e-10 2.11542e-09 2.07984e-09 -3.00917e-10 3.61631e-09 3.59263e-09 -1.43529e-10 2.11542e-09 2.07986e-09 -7.73091 5.47488 -0.417314 -1.43529e-10 2.11541e-09 2.07984e-09 -2.90554 0.965183 -0.102902 -1.43534e-10 2.11542e-09 2.07984e-09 -10.2786 0.731801 -0.0259123 -1.43526e-10 2.11542e-09 2.07982e-09 -2.22167 -0.733487 0.20892 -2.03217e-16 0.0 -3.88251e-19 -26.5643 -29.3608 -23.1138 -0.700941 55.7368 1.7537 -1.77819 -16.4993 -4.78928 2.03217e-16 0.0 3.88251e-19 2.50518 -54.5189 4.1746 0.537243 48.0349 -0.932603 1.03726 -2.09387 5.70187
237.74 76.208 -25.235 179.244 28.5015 -169.223 -13.406 51.0712 8.99624 -1.64518 -11.1322 2.16675 0.177479 -13.9408 4.76838 -9.78491 -7.3381 9.22857 -0.0 0.0 0.0 -0.0 0.0 0.0 -9.20189e-14 9.82103e-14 2.03121e-13 44.1635 30.0652 39.1846 -25.1235 -21.3635 53.3896 -0.229476 -13.5184 -1.93631 6.53685e-10 -1.1814e-09 -2.3238e-09 1.15658e-09 -2.08959e-09 -4.01555e-09 6.53691e-10 -1.18139e-09 -2.32383e-09 7.73091 5.47488 0.417314 6.53682e-10 -1.1814e-09 -2.32381e-09 2.90554 0.965183 0.102902 6.53688e-10 -1.1814e-09 -2.32381e-09 10.2786 0.731801 0.0259123 6.5368e-10 -1.1814e-09 -2.3238e-09 2.22167 -0.733487 -0.20892 -9.20617e-14 9.81885e-14 2.02863e-13 -29.1175 29.5186 -38.8299 24.1795 -19.4351 -50.1914 1.35769 -31.1351 4.8702 -9.48196e-10 3.59129e-10 1.09055e-09 -1.66285e-09 5.75766e-10 1.86148e-09 -9.48196e-10 3.59132e-10 1.09056e-09 -7.73091 5.47488 -0.417314 -9.48196e-10 3.59127e-10 1.09055e-09 -2.90554 0.965183 -0.102902 -9.48198e-10 3.59126e-10 1.09055e-09 -10.2786 0.731801 -0.0259123 -9.48189e-10 3.59125e-10 1.09053e-09 -2.22167 -0.733487 0.20892 -2.03217e-16 0.0 -3.88251e-19 -26.6425 -30.7963 -21.7853 -0.634216 54.081 1.65003 -0.901205 -16.4706 -2.38505 2.03217e-16 0.0 3.88251e-19 2.95244 -54.7964 4.45006 0.529523 47.8435 -0.938835 0.989663 -1.89968 5.63499
238.265 76.2075 -24.9679 179.019 28.3 -168.922 -13.0764 50.6936 8.44535 -1.36697 -11.0153 2.07965 0.212885 -13.9696 4.90555 -10.0039 -7.41501 9.4802 -0.0 0.0 0.0 -0.0 0.0 0.0 -1.70614e-13 2.36023e-13 5.25151e-13 43.9464 30.2275 38.9302 -25.1444 -21.4093 53.4652 -0.233131 -13.6227 -1.95182 -7.85328e-10 6.73663e-10 -2.27364e-09 -1.3305e-09 1.1238e-09 -3.94434e-09 -7.85323e-10 6.7367e-10 -2.27366e-09 7.73091 5.47488 0.417314 -7.85331e-10 6.73661e-10 -2.27364e-09 2.90554 0.965183 0.102902 -7.85324e-10 6.73662e-10 -2.27364e-09 10.2786 0.731801 0.0259123 -7.85332e-10 6.73664e-10 -2.27363e-09 2.22167 -0.733487 -0.20892 -1.70678e-13 2.3599e-13 5.24892e-13 -29.3304 28.7353 -38.7654 24.2773 -19.6236 -50.5047 1.39158 -31.4719 4.93531 -1.70755e-09 -1.5785e-09 -8.08795e-11 -2.94172e-09 -2.77277e-09 -1.83242e-10 -1.70755e-09 -1.5785e-09 -8.08677e-11 -7.73091 5.47488 -0.417314 -1.70755e-09 -1.57851e-09 -8.0872e-11 -2.90554 0.965183 -0.102902 -1.70755e-09 -1.57851e-09 -8.08721e-11 -10.2786 0.731801 -0.0259123 -1.70753e-09 -1.57851e-09 -8.0886e-11 -2.22167 -0.733487 0.20892 -2.03217e-16 0.0 -3.88251e-19 -26.6355 -32.2337 -20.4811 -0.58867 52.7316 1.56397 0.0670847 -16.2802 0.2899 2.03217e-16 0.0 3.88251e-19 3.36176 -55.0688 4.71244 0.522975 47.6511 -0.940425 0.944195 -1.65967 5.58695
238.8 76.195 -24.6829 178.764 28.1004 -168.73 -12.789 50.4647 7.97551 -1.17566 -10.9341 2.00595 0.243155 -13.9658 5.01707 -10.1547 -7.52733 9.68109 -0.0 0.0 0.0 -0.0 0.0 0.0 -2.28947e-13 3.05351e-13 7.03052e-13 43.8226 30.3886 38.6682 -25.154 -21.4306 53.5005 -0.235324 -13.6844 -1.96102 -1.70359e-09 1.92413e-09 -1.95856e-09 -2.92129e-09 3.29576e-09 -3.40869e-09 -1.70358e-09 1.92413e-09 -1.95858e-09 7.73091 5.47488 0.417314 -1.70359e-09 1.92413e-09 -1.95856e-09 2.90554 0.965183 0.102902 -1.70358e-09 1.92413e-09 -1.95856e-09 10.2786 0.731801 0.0259123 -1.70359e-09 1.92413e-09 -1.95855e-09 2.22167 -0.733487 -0.20892 -2.29018e-13 3.05315e-13 7.02803e-13 -29.5516 28.1318 -38.5651 24.3867 -19.8378 -50.8571 1.4309 -31.8587 5.01051 -2.11113e-09 -3.11791e-09 -1.12547e-09 -3.60993e-09 -5.42315e-09 -1.9992e-09 -2.11113e-09 -3.11791e-09 -1.12546e-09 -7.73091 5.47488 -0.417314 -2.11113e-09 -3.11792e-09 -1.12546e-09 -2.90554 0.965183 -0.102902 -2.11113e-09 -3.11792e-09 -1.12546e-09 -10.2786 0.731801 -0.0259123 -2.11112e-09 -3.11792e-09 -1.12547e-09 -2.22167 -0.733487 0.20892 -2.03217e-16 0.0 -3.88251e-19 -26.3358 -33.4731 -19.0555 -0.561178 51.77 1.50161 0.800856 -16.1375 2.3547 2.03217e-16 0.0 3.88251e-19 3.71436 -55.1514 4.82508 0.514276 47.3812 -0.93712 0.901948 -1.40846 5.55657
